# xmcd
#
# Track frame offsets: 
#        150
#        14503
#        32614
#        50976
#        68777
#        87204
#        106462
#        123075
#        140711
#        164194
#
# Disc length: 2391 seconds
#
# Revision: 0
# Processed by: cddbd v1.4PL0 Copyright (c) Steve Scherf et al.
# Submitted via: ExactAudioCopy v0.90b2
#
DISCID=9009550a
DTITLE=Dan Seals - Make It Home
DYEAR=2002
DGENRE=Country
TTITLE0=Angel Eyes
TTITLE1=Such A Sweet Sight
TTITLE2=Saw You In My Dreams
TTITLE3=Certain Circles
TTITLE4=Only You
TTITLE5=Reminiscing
TTITLE6=Blessed
TTITLE7=It Don't Matter Who You Love
TTITLE8=Make It Home
TTITLE9=Why This River Runs
EXTD=scanner1 Rip
EXTT0=
EXTT1=
EXTT2=
EXTT3=
EXTT4=
EXTT5=
EXTT6=
EXTT7=
EXTT8=
EXTT9=
PLAYORDER=
